<?xml version="1.0" encoding="UTF-8"?>
<svg id="_圖層_1" data-name="圖層 1" xmlns="http://www.w3.org/2000/svg" viewBox="0 0 697.97724 359.06512">
  <defs>
    <style>
      .cls-1 {
        fill-rule: evenodd;
      }
    </style>
  </defs>
  <path class="cls-1" d="M170.02265,296.2183c1.3857,1.0566,2.3789,.8457,3.4409,.2236,4.8618-2.8486,9.7871-5.5908,14.5937-8.5293,1.4483-.88469,2.646-2.21769,3.84771-3.45409,.85009-.874,1.16209-2.0273,1.00539-3.2793-.0537-.4287-.0171-.8681-.0171-1.3037-.0005-75.83591-.0005-151.6728,.0005-227.50969,0-.5591-.0757-1.1338,.0258-1.6739,.3848-2.04931-.65859-3.3291-2.2695-4.2715-3.3706-1.9721-6.7773-3.8833-10.1465-5.8574-2.083-1.2202-4.1035-2.5459-6.1894-3.7597-2.7315-1.5889-5.5044-3.1055-8.249-4.67-2.1524-1.2265-4.355-2.3808-6.4126-3.7505-1.6744-1.1147-3.2217-1.1118-4.8692-.1406-4.0058,2.3618-7.9892,4.7622-12.0141,7.0908-4.82329,2.7901-9.6914,5.5015-14.5186,8.2847-3.3745,1.9458-6.6924,3.9902-10.07369,5.92289-2.63531,1.50631-5.35551,2.86471-7.98981,4.373-2.1489,1.22951-4.206,2.61821-6.3408,3.874-2.6167,1.53961-5.2715,3.01521-7.9106,4.51711-4.4175,2.5132-8.8457,5.0083-13.2505,7.5445-2.5752,1.4829-5.1177,3.0219-7.6646,4.5532-1.2617,.7578-1.6045,2.01019-1.6338,3.3603-.0346,1.6138,.0191,3.229,.0191,4.8443,.0014,67.7617,.001,135.5244,.0014,203.28709,0,1.1797-.0258,2.3613,.0083,3.54,.1206,4.1338-1.2866,7.7041-4.1777,10.5996-1.7817,1.7842-4.0488,2.8272-6.5625,3.2783-6.6045,1.1866-12.1387-3.1406-13.7534-8.2363-.6543-2.0644-.8355-4.1152-.835-6.2334,.0054-33.7265,.0044-67.4521,.0049-101.17871,0-38.25879-.0171-76.519,.0381-114.77929,.0034-2.5786,.4692-5.1699,.8706-7.7319,.4585-2.9317,2.3613-5.083,4.5352-6.8272,2.2075-1.771,4.7085-3.188,7.1352-4.6718,2.6939-1.648,5.4473-3.19881,8.1782-4.7862,4.6573-2.707,9.3184-5.4087,13.9756-8.1162,3.6934-2.1475,7.3755-4.31441,11.0781-6.4468,2.9537-1.7002,5.9312-3.3589,8.897-5.0381,3.7705-2.1357,7.55759-4.2436,11.30619-6.4179,4.5029-2.6123,8.959-5.3052,13.4604-7.9199,6.6988-3.8912,13.3955-7.78671,20.1441-11.5904,2.5415-1.4331,5.2607-2.5117,8.2339-2.7148,2.8339-.1939,5.5957,.16549,8.1142,1.5229,4.74121,2.5552,9.4526,5.166,14.1387,7.8218,2.2602,1.28079,4.4009,2.7705,6.6523,4.0674,4.2959,2.4741,8.6416,4.8618,12.95021,7.31439,3.77,2.14651,7.53659,4.30081,11.26909,6.51081,2.7578,1.6328,5.27291,3.7099,6.8271,6.4624,1.1494,2.0361,1.5122,4.5449,2.04981,6.8833,.24509,1.0649,.07569,2.2266,.07569,3.3442,.0039,79.0049,.0171,158.0088-.0273,237.01269-.0025,3.76859-.3809,7.5537-.8365,11.3008-.477,3.9268-2.625,6.9561-5.5371,9.6143-3.9927,3.6435-8.6704,6.1621-13.3247,8.7558-.8652,.4824-1.6592,1.0947-2.5312,1.5625-3.712,1.9951-7.441,3.9571-11.1636,5.9317-.0547,.0293-.1157,.0478-.1685,.0791-4.0151,2.332-8.0625,4.6123-12.0317,7.0214-2.2183,1.3448-4.2422,3.0127-6.4683,4.3438-4.5849,2.7412-9.4433,3.709-14.562,1.5752-3.96779-1.6553-6.7363-6.46-6.7285-9.9375,.085-38.0733,.0552-76.1475,.0523-114.2207,0-.9307,.0283-1.8731-.0948-2.7901-.208-1.5595-1.3799-2.2958-2.8252-1.6855-1.01359,.42679-1.8925,1.1641-2.8579,1.71579-3.9844,2.27931-7.98,4.53811-11.9673,6.81151-1.12839,.6426-2.2568,1.2872-3.3613,1.9678-1.3506,.833-1.8408,2.09569-1.7886,3.6485,.0523,1.5517,.0342,3.1054,.0347,4.65819,.0029,40.247,.0332,80.4951-.05519,120.7421-.00631,2.9971-.54931,6.0889-1.42041,8.962-.9551,3.1494-5.706,7.667-9.8872,7.3652-2.0298-.1455-4.0635,.125-6.0723-.6113-3.5703-1.3086-6.0551-3.6993-7.2182-7.2461-.666-2.0313-1.1118-4.2393-1.1148-6.3672-.061-43.2295-.0503-86.458-.0249-129.6865,.0015-2.3506,.2217-4.7041,.3999-7.0518,.4615-6.082,3.8843-10.1309,8.9722-13.0625,2.8965-1.66991,5.7178-3.4687,8.605-5.1543,2.6758-1.5635,5.4013-3.041,8.0913-4.5801,3.1728-1.8154,6.333-3.6533,9.4941-5.4892,5.2505-3.0489,10.4951-6.1084,15.7481-9.15331,1.1196-.64849,2.251-1.28029,3.4009-1.87309,6.94431-3.5791,15.6235-.8867,18.3281,7.2539,.3066,.9248,.46921,1.9414,.46921,2.916,.01029,24.6573-.02391,49.3155-.01171,73.9727,.002,4.2803,.2373,8.56049,.2563,12.8418,.0411,9.1806,.003,18.3633,.0191,27.5449,.0019,1.0342,.1421,2.0684,.209,2.9795Z"/>
  <path class="cls-1" d="M.02316,179.4663C.02316,133.3228,.00456,87.1792,.05436,41.03571c.0044-4.2412,1.8687-7.8823,5.1397-10.5332,2.2436-1.81791,4.8632-3.1782,7.3427-4.6978,1.8457-1.1323,3.7349-2.1924,5.606-3.2832,3.8018-2.2158,7.605-4.4292,11.4062-6.646,2.8907-1.6865,5.7701-3.393,8.6709-5.0625,5.313-3.0566,10.5713-6.2192,15.979-9.1001,4.9942-2.6611,9.9581-2.1762,14.543,1.13869,.9209,.666,1.6802,1.67921,2.2461,2.68311,.8496,1.5078,1.6065,3.1035,2.1226,4.7495,.3193,1.0176,.3266,2.2402,.1132,3.2979-.8134,4.0332-2.6796,7.3403-6.3144,9.6626-4.9663,3.1723-10.1177,5.9961-15.2856,8.8061-1.6319,.8877-3.1597,1.96579-4.7681,2.9004-4.877,2.834-9.77,5.6411-14.6572,8.4575-1.9327,1.1133-3.8936,2.1807-5.7915,3.3506-1.2828,.79-2.0635,1.8667-1.8174,3.5552,.1767,1.2178,.0664,2.479,.0664,3.7207,.0014,83.8413,.001,167.6821,.0024,251.52289,0,1.0557,.0552,2.1133,.0156,3.167-.0693,1.8203,.8199,3.083,2.2867,3.9844,1.478,.9072,3.0102,1.7266,4.5019,2.6133,3.0894,1.834,6.1494,3.7187,9.2573,5.5215,2.0352,1.1806,4.1431,2.2334,6.2002,3.3779,2.2705,1.2637,4.523,2.5596,6.7774,3.8525,3.061,1.7559,6.126,3.5049,9.1704,5.2891,2.5669,1.5059,5.2529,2.9004,7.1528,5.2686,4.3755,5.4511,4.4507,10.6015,.2583,15.9121-2.477,3.1377-5.8252,4.584-9.9472,4.5185-2.3448-.0371-4.3414-.6103-6.3218-1.7558-5.3076-3.0704-10.6714-6.043-15.9946-9.086-3.1177-1.7812-6.1895-3.6435-9.3038-5.4326-2.4179-1.3896-4.8808-2.7002-7.3027-4.083-4.1406-2.3633-8.4014-4.5537-12.3476-7.209-2.6241-1.7646-5.4292-3.4892-7.0196-6.5176-1.1509-2.1914-1.8965-4.4482-2.0058-6.8964-.0801-1.7969-.001-3.6016-.001-5.4024,.001-44.4043,.001-88.8096,.001-133.2139h-.0127Z"/>
  <path class="cls-1" d="M96.02066,125.0493c0-8.0126-.0405-16.0253,.0283-24.0366,.0171-2.0376,.2598-4.0927,.6099-6.103,.9673-5.5498,4.6856-9.0127,9.2622-11.7222,4.6397-2.747,9.3233-5.41891,14.0025-8.0986,3.3339-1.9097,6.71141-3.7446,10.0346-5.67331,3.5352-2.05279,7.021-4.18949,10.543-6.26569,3.4155-2.0136,6.7715-4.1499,10.3017-5.9389,2.3316-1.1817,5.0074-1.5591,7.6329-1.2691,5.3335,.5894,8.84321,3.5894,10.61421,8.6026,.34279,.9712,.46879,2.0634,.47609,3.101,.12791,17.5743,.23191,35.1485,.3091,52.7222,.0122,2.7227-.0318,5.4121-.9868,8.0772-1.9659,5.4853-8.6153,8.9316-14.1563,7.8955-3.2808-.6143-5.8164-2.6114-7.8286-5.30181-1.8242-2.43849-2.1563-5.23629-2.1646-8.11429-.0258-8.9438-.00289-17.8876-.00189-26.832,0-.6206,.00829-1.2441-.04491-1.8618-.2285-2.646-1.8658-3.4365-4.0923-2.0415-2.0986,1.3145-4.2217,2.5923-6.36279,3.8364-3.21881,1.8706-6.44191,3.7364-9.70461,5.5288-1.9341,1.0625-2.752,2.46-2.73239,4.7896,.11519,13.9126,.07129,27.8257,.05709,41.73879-.0024,2.87591-.3725,5.74411-1.4512,8.40131-1.2202,3.0049-3.25389,5.2979-6.4292,6.5772-1.9135,.77149-3.7905,1.0527-5.7968,1.0136-5.293-.1005-8.6114-3.0498-10.8018-7.53411-1.0518-2.15139-1.335-4.501-1.3296-6.89549,.0195-8.1983,.0073-16.39651,.0073-24.5958h.0049Z"/>
  <path class="cls-1" d="M437.33265,143.3443c-3.1621,3.48529-6.7881,6.1601-10.165,9.3535-.4775-.4541-.8154-.7783-1.1553-1.1006-1.3027-1.2305-2.5566-2.51861-3.916-3.6807-4.1016-3.50191-8.998-4.3164-14.1338-3.7255-3.8994,.4492-7.6142,2-10.2754,4.8115-5.1259,5.41309-6.9228,11.9824-5.5478,19.4326,1.13861,6.1631,4.748,10.456,10.2109,12.8486,5.2412,2.29489,10.7871,2.5713,16.22171-.1094,1.99319-.9833,3.71969-2.2236,5.27049-3.7412,1.39551-1.3642,2.2227-3.0546,2.6328-5.247-.916-.1309-15.6152-.0176-15.6152-.0176l-.1797-12.2686s32.3418,.0938,32.3437,.0938c.211,.00189-1.1826,12.04689-1.4003,13.039-.7579,3.4522-2.2247,6.7383-4.2344,9.6436-2.0918,3.0205-4.6387,5.8955-7.6739,7.9932-1.7187,1.1884-3.6523,2.2216-5.5957,2.99309-6.4179,2.54981-13.0957,3.31251-19.9326,2.02841-6.5439-1.2286-12.5166-3.73441-17.20019-8.5889-2.09181-2.168-3.85151-4.6924-5.54881-7.1992-4.5527-6.7295-5.0713-14.334-3.9746-22.0215,.9277-6.4912,3.416-12.5196,8.3359-17.09381,2.376-2.208,5.1407-4.10349,7.9903-5.665,7.2773-3.98729,15.957-5.18069,24.0976-3.73929,5.585,.98929,10.6739,3.2871,15.0137,6.9727,1.583,1.3437,2.7978,3.1221,4.4316,4.9883Z"/>
  <path class="cls-1" d="M521.07875,132.12259c.876-.06839,16.9864-.19139,24.4375-.14549,3.5381,.02149,7.0196,.2959,10.4571,1.43749,3.5742,1.18751,6.4384,3.10641,8.5195,6.23051,2.916,4.3789,3.3838,9.0712,1.9326,14.0634-1.1299,4.6289-5.7353,7.5547-6.35448,8.24809,.791,.459,11.38668,5.34181,11.34958,14.33011,.3555,5.6562-1.8554,10.4013-6.2988,14.04189-3.50678,2.87111-7.6064,4.06451-12.0332,4.35261-1.6113,.1055-3.22558,.1963-4.8379,.1992-8.2598,.0205-26.2363-.0859-27.13768-.1455-.10252-.7666-.12792-61.6338-.03422-62.61231Zm14.2158,51.05271c1.4805,.1914,3.0909-.039,4.5733-.09371,2.125-.07719,4.24512-.12009,6.37012-.124,3.20018-.00489,8.01078-.58989,10.00488-3.46679,1.1123-1.6026,1.2392-3.6661,.3955-5.4131-.44338-.919-1.1621-1.9912-1.94238-2.6602-2.15142-1.8476-4.75192-2.3721-7.44922-2.4531-3.2871-.0986-11.92578,.3535-11.92578,.3535,0,0-.02642,9.2803-.02642,13.8574Zm.19542-26.25s8.20018,.15329,11.72158-.0879c1.3282-.09181,2.751-.79981,3.8692-1.5937,2.6484-1.8819,2.7705-7.1563,.2129-9.0684-1.6651-1.2451-3.4688-1.9013-5.51168-1.92871-2.85362-.039-10.43852,.11331-10.43852,.11331l.14652,12.5654Z"/>
  <path class="cls-1" d="M481.37955,130.689c4.9688,.1162,9.9092,1.2637,14.5889,3.1201,3.792,1.5049,7.0469,3.919,9.6084,7.1211,2.8965,3.6211,5.9629,7.1856,7.2539,11.77739,1.3125,4.666,2.3428,9.373,1.5019,14.29781-.5009,2.9385-.8379,5.90719-2.0556,8.6641-1.253,2.8359-2.5869,5.6328-4.7578,7.9248-1.69828,1.792-3.2959,3.6894-5.0948,5.374-2.8623,2.6816-6.4297,4.1904-10.084,5.4082-4.81249,1.6025-9.7597,2.3809-14.8457,1.666-6.8085-.958-13.1816-2.9355-18.288-7.8672-.6661-.6435-1.4561-1.1562-2.1397-1.7832-4.0469-3.7109-6.4219-8.2939-7.91009-13.5976-1.44931-5.17091-1.55771-10.3116-.79111-15.46391,.4678-3.14259,1.4512-6.26369,3.0186-9.13089,1.4639-2.6787,3.0918-5.2265,5.27051-7.3867,4.10939-4.0762,8.80269-7.0762,14.43159-8.7685,3.3926-1.0205,6.8497-1.4366,10.293-1.3555Zm-18.9258,32.2334c-.2265,6.0098,1.74221,10.7666,5.6494,14.8174,2.67681,2.7773,6.3819,4.2012,10.0967,4.9599,1.2168,.2491,2.4903,.3633,3.7324,.2852,3.4766-.2168,7.3594-1.4951,10.2129-3.5166,2.0157-1.42771,3.7705-3.291,5-5.4375,.708-1.2363,1.3174-2.5791,1.80081-3.919,1.99509-5.54,1.29979-10.9169-1.32421-16.19621-2.8906-5.81349-7.793-8.61139-13.84279-9.74519-3.15231-.59081-6.27051-.1211-9.31931,1.0039-4.3418,1.6006-7.55469,4.5665-9.7266,8.4668-1.62009,2.9102-2.5537,6.1983-2.2793,9.2813Z"/>
  <path class="cls-1" d="M609.44496,130.7378c5.043,.124,10.09868,1.2744,14.77248,3.13579,3.7324,1.48731,6.8516,3.957,9.4668,7.02931,4.6279,5.4336,8.05272,11.3466,8.76372,18.7002,.67378,6.9697-.44922,13.455-3.795,19.5732-2.416,4.418-5.70112,8.1221-9.72262,11.0957-2.5977,1.919-5.5899,3.209-8.6846,4.1875-4.9736,1.5723-10.0342,2.2793-15.2451,1.5264-5.4834-.792-10.5176-2.61231-15.1279-5.8076-4.9932-3.461-8.6006-7.9815-11.3487-13.295-.1416-.2754-.291-.55171-.3886-.84371-2.0703-6.23049-2.8614-12.62309-1.60348-19.07519,.54778-2.8057,1.15818-5.7266,2.84178-8.2129,1.5644-2.3096,2.8974-4.8047,4.666-6.9424,2.791-3.375,6.36522-5.8486,10.2754-7.831,4.7421-2.4034,9.9296-3.3682,15.12982-3.2403Zm-18.90722,33.5723c-.3076,4.9892,2.2051,9.5644,5.9893,13.5928,2.2002,2.3418,5.0732,3.3134,8.0595,4.34469,5.7422,1.98241,10.9248,.37791,15.3741-2.70019,6.6064-4.5703,9.1591-11.3711,7.90332-19.3926-.55472-3.5478-1.79882-7.0283-4.20512-9.61521-3.8125-4.09859-8.54688-6.71879-14.4482-6.60549-2.917,.0557-5.8018,.47849-8.253,1.9414-6.6308,3.95709-10.5019,9.6953-10.4199,18.4346Z"/>
  <path class="cls-1" d="M283.98165,132.0913c.7104-.05371,16.0302-.1289,16.0302-.1289,0,0,16.562,42.4248,17.7027,45.5723,1.2456,3.4375,6.0429,16.6338,6.0429,16.6338,0,0-10.3164,.6533-14.6591,.623-.1148-.00091-.5596-.2295-.5596-.2295,0,0-2.3877-6.3798-3.7485-9.833-.5372-.0888-24.2681-.1787-24.8775-.1162-1.4072,3.3994-3.9849,10.25879-3.9849,10.25879l-13.9262-.17969s21.2695-62.5478,21.98-62.6006Zm8.4326,15.4825s-7.584,23.0966-7.584,23.664c.6011,.1172,14.8623-.0527,15.6265-.2705-2.48879-7.3955-8.0425-23.3935-8.0425-23.3935Z"/>
  <path class="cls-1" d="M 665.00064 145.2652 L 646.78674 145.0913 L 646.99874 132.1197 L 697.90696 132.1197 L 697.97724 144.938 L 679.90204 145.2984 L 680.13634 194.4771 L 664.99084 194.4771 Z"/>
  <path class="cls-1" d="M328.50605,194.5288v-62.5664h13.7798s.2968,48.6426,.3623,49.417c.9277,.1328,29.3466,.043,29.3466,.043v13.0576s-42.7197,.18359-43.4887,.0488Z"/>
</svg>