<?xml version="1.0" encoding="utf-8"?>
<!-- Generator: Adobe Illustrator 26.4.1, SVG Export Plug-In . SVG Version: 6.00 Build 0)  -->
<svg version="1.1" xmlns="http://www.w3.org/2000/svg" xmlns:xlink="http://www.w3.org/1999/xlink" x="0px" y="0px"
	 viewBox="0 0 255.12 255.12" style="enable-background:new 0 0 255.12 255.12;" xml:space="preserve">
<style type="text/css">
	.st0{fill-rule:evenodd;clip-rule:evenodd;}
</style>
<g id="New_Layer">
	<g>
		<path class="st0" d="M0,127.56v127.56h127.56h127.56V127.56V0H127.56H0V127.56z M33.38,97.41c2.89,1.49,3.49,3.34,3.49,10.91v6.78
			h-4.48H27.9v-2.24c0-1.25-0.15-2.24-0.35-2.24c-0.4,0-3.14,4.58-3.14,5.18c0,0.15,2.79,0.3,6.23,0.3h6.23v6.98v6.98h-4.48H27.9
			v-2.49v-2.49h-4.58h-4.63l-1.64,2.49l-1.59,2.49h-4.98c-2.74,0-4.98-0.2-4.98-0.4c0-0.25,1.45-2.64,3.14-5.38
			c1.74-2.69,5.93-9.32,9.32-14.65c6.48-10.26,7.62-11.81,9.22-12.46C28.75,96.47,31.84,96.62,33.38,97.41z M48.83,113.36v16.69
			h-4.48h-4.48v-16.69V96.67h4.48h4.48V113.36z M92.08,100.85c1.4,2.29,2.59,4.29,2.59,4.48c0,0.15-6.08,0.3-13.5,0.3h-13.5
			l0.2-3.29c0.2-2.89,0.4-3.49,1.59-4.48c1.3-1.15,1.59-1.2,10.66-1.2h9.32L92.08,100.85z M123.32,97.91
			c1.1,1.05,1.25,1.64,1.25,4.48v3.24h-13.45H97.66v-3.04c0-2.69,0.15-3.19,1.45-4.48l1.45-1.45h10.81h10.76L123.32,97.91z
			 M150.63,99.26c0.9,1.45,2.19,3.49,2.79,4.48l1.15,1.89h-13.5h-13.5v-2.94c0-2.44,0.2-3.24,1.3-4.48l1.3-1.54h9.42h9.42
			L150.63,99.26z M181.47,101l2.74,4.38l-8.92,0.15l-8.87,0.1v7.47v7.47h8.72c5.43,0,8.72,0.2,8.72,0.5c0,0.25-1.2,2.39-2.59,4.73
			l-2.59,4.24h-10.61h-10.61v-16.69V96.67h10.66h10.66L181.47,101z M197.82,98.01c0.85,0.8,3.84,5.18,6.73,9.87l5.23,8.47v-9.87
			v-9.82h4.78h4.73l-0.15,14.3c-0.15,13.9-0.2,14.4-1.25,15.9c-2.29,3.19-6.63,3.99-9.62,1.79c-0.7-0.5-3.64-4.93-6.58-9.82
			l-5.38-8.87v10.02v10.07h-4.48h-4.53l0.15-14.9l0.15-14.9l1.25-1.35c1.59-1.69,2.69-2.19,5.33-2.19
			C195.82,96.67,196.67,96.96,197.82,98.01z M245.9,100.75c1.4,2.19,2.59,4.24,2.64,4.48c0.1,0.2-3.74,0.4-8.57,0.4h-8.77v7.47v7.47
			h8.72c4.78,0,8.72,0.2,8.72,0.4c0,0.25-1.2,2.29-2.69,4.63l-2.64,4.19h-10.66h-10.66l-0.15-16.59l-0.1-16.54h10.81h10.86
			L245.9,100.75z M77.23,113.36v7.23h4.24h4.24v-1.49c0-1.25-0.2-1.49-1.2-1.49c-0.95,0-1.64-0.75-3.34-3.39
			c-1.15-1.84-2.44-3.84-2.84-4.48l-0.7-1.1h8.77h8.77v8.42c0,4.83-0.25,9.02-0.55,9.97c-0.95,2.74-2.24,3.04-13.35,3.04H71.25
			l-1.59-1.45l-1.64-1.45l-0.15-10.51l-0.15-10.51h4.73h4.78V113.36z M107.13,113.36v7.23h4.24h4.24v-7.23v-7.23h4.48h4.48v10.66
			v10.66l-1.54,1.3l-1.54,1.3h-9.87c-6.63,0-10.36-0.2-11.21-0.6c-2.49-1.1-2.74-2.44-2.74-13.35v-9.97h4.73h4.73V113.36z
			 M136.53,113.36v7.23h4.48h4.48v-1.49c0-1.3-0.2-1.49-1.35-1.49c-1.45-0.05-1.64-0.3-5.63-7.13l-1.1-1.84h8.52h8.52v9.27v9.27
			l-1.45,1.45l-1.45,1.45h-10.07c-10.61,0-12.31-0.3-13.45-2.44c-0.3-0.6-0.5-5.13-0.5-11.21v-10.26h4.48h4.48V113.36z
			 M178.33,110.47c-0.6,1.05-1.89,3.09-2.79,4.48l-1.64,2.64h-3.49h-3.49v-4.48v-4.48h6.28h6.28L178.33,110.47z M241.42,112.96
			l-2.69,4.38l-3.54,0.15l-3.49,0.15v-4.53v-4.48h6.23h6.23L241.42,112.96z M66.27,121.08c0,0.25-1.2,2.39-2.59,4.73l-2.64,4.24
			h-5.83h-5.88v-4.38c0-2.44,0.15-4.58,0.35-4.73C50.23,120.38,66.27,120.53,66.27,121.08z M69.26,138.27c0,1.1-0.2,1.25-1.74,1.25
			s-1.74-0.15-1.74-1.25c0-1.1,0.2-1.25,1.74-1.25S69.26,137.18,69.26,138.27z M115.6,138.77v1.74h2.74c3.24,0,3.34,0.2,3.14,6.23
			l-0.15,3.99h-1.49h-1.49l-0.15-3.64c-0.15-3.44-0.2-3.59-1.35-3.59c-1.2,0-1.25,0.1-1.25,3.79v3.74l-1.59-0.15l-1.64-0.15
			l-0.1-6.88l-0.15-6.83h1.74C115.5,137.03,115.6,137.13,115.6,138.77z M183.22,139.57c0.15,0.5,0.45,0.95,0.7,0.95
			c0.25,0,0.75,0.65,1.2,1.49c0.75,1.45,0.75,1.49-0.45,1.49c-1.2,0-1.25,0.15-1.4,3.59l-0.15,3.64l-1.59,0.15l-1.64,0.15v-3.74
			c0-2.19-0.2-3.79-0.5-3.79c-0.25,0-0.5-0.7-0.5-1.49c0-0.85,0.25-1.49,0.5-1.49c0.3,0,0.5-0.8,0.5-1.74v-1.79l1.54,0.85
			C182.27,138.22,183.12,139.02,183.22,139.57z M195.67,143.85l-0.1,6.88h-4.14c-3.14,0-4.24-0.2-4.58-0.75
			c-0.65-1-0.55-8.02,0.1-8.87c0.3-0.3,1.59-0.6,2.94-0.6h2.44v-1.74c0-1.64,0.1-1.74,1.74-1.74h1.74L195.67,143.85z M63.83,139.87
			c0.35,0.8,0.75,1.54,0.85,1.74c0.1,0.25-1.2,0.4-2.84,0.4c-1.69,0-3.04,0.2-3.04,0.5c0,0.25,1,0.5,2.24,0.5h2.19l-1,1.74
			c-0.75,1.2-1.4,1.74-2.19,1.74c-1.05,0-1.2,0.25-1.35,2.09c-0.15,1.99-0.25,2.14-1.74,2.29l-1.64,0.15v-6.23v-6.28h3.89
			C62.98,138.52,63.13,138.57,63.83,139.87z M91.09,138.92c-0.1,0.2-0.5,0.95-0.85,1.69c-0.55,1.05-1.1,1.4-2.14,1.4h-1.4v4.53v4.48
			l-1.59-0.15l-1.64-0.15l-0.15-4.38c-0.15-4.24-0.15-4.34-1.35-4.34c-1.1,0-1.25-0.2-1.25-1.74v-1.74l5.28,0.05
			C88.89,138.57,91.18,138.72,91.09,138.92z M141.91,140.27l1.1,1.74h-3.24h-3.24v2.74v2.74h2.99c1.64,0,2.99,0.2,2.99,0.45
			c0,0.2-0.5,1.05-1.1,1.79c-1,1.25-1.25,1.35-4.24,1.15c-2.09-0.15-3.39-0.45-3.69-0.95c-0.25-0.35-0.45-2.89-0.45-5.53
			c0-5.68,0.15-5.83,4.73-5.88C140.66,138.52,140.81,138.62,141.91,140.27z M171.91,143.01v4.48h2.99c1.64,0,2.99,0.15,2.99,0.3
			s-0.45,0.95-1.05,1.74c-0.95,1.35-1.15,1.45-4.58,1.3l-3.59-0.1l-0.15-6.13l-0.15-6.08h1.79h1.74V143.01z M69.16,145.6l-0.15,5.13
			l-1.59,0.15l-1.64,0.15v-5.23v-5.28h1.74h1.79L69.16,145.6z M79.23,141.51c0.3,0.55,0.5,2.84,0.4,5.13l-0.15,4.09l-1.59,0.15
			l-1.64,0.15v-3.74c0-3.69-0.05-3.79-1.25-3.79c-1.15,0-1.2,0.15-1.35,3.59l-0.15,3.64H72h-1.49l-0.15-5.13l-0.15-5.08h4.24
			C78.18,140.51,78.78,140.61,79.23,141.51z M101,143.5c0.1,2.09-0.1,2.89-0.7,3.34c-0.75,0.6-0.75,0.65,0.25,0.65h1.05l-1.05,1.79
			l-1.05,1.79l-3.39-0.2c-1.84-0.1-3.54-0.35-3.79-0.55c-0.65-0.7-0.8-7.62-0.15-8.77c0.5-1,0.9-1.1,4.63-0.95l4.09,0.15L101,143.5z
			 M110.87,142.01l0.8,1.49h-2.79h-2.74v1.99v1.99h2.74c1.49,0,2.74,0.15,2.74,0.3s-0.45,0.95-1.05,1.74
			c-0.85,1.2-1.35,1.45-3.19,1.45c-1.2,0-2.74-0.2-3.44-0.5c-1.25-0.45-1.3-0.65-1.3-4.43c0-5.58-0.05-5.53,4.04-5.53
			C109.97,140.51,110.12,140.56,110.87,142.01z M152.37,145.25c0.15,5.28-0.15,5.73-4.29,5.73c-4.34,0-4.58-0.3-4.58-5.43
			c0-2.39,0.15-4.53,0.35-4.73s2.14-0.25,4.38-0.2l3.99,0.15L152.37,145.25z M156.86,149.08c-0.15,1.45-0.3,1.64-1.64,1.64
			s-1.49-0.2-1.64-1.64c-0.15-1.54-0.1-1.59,1.64-1.59S157.01,147.54,156.86,149.08z M200.21,149.08c-0.15,1.45-0.35,1.64-1.74,1.79
			c-1.59,0.15-1.64,0.1-1.64-1.59c0-1.74,0.05-1.79,1.79-1.79C200.31,147.49,200.36,147.54,200.21,149.08z"/>
		<ellipse class="st0" cx="191.09" cy="145.5" rx="1.25" ry="1.99"/>
		<path class="st0" d="M95.17,145.75c0,1.54,0.15,1.74,1.25,1.74h1.2l-1-1.74c-0.6-0.95-1.15-1.74-1.25-1.74
			S95.17,144.8,95.17,145.75z"/>
		<path class="st0" d="M146.59,145.35c0.1,1.54,0.35,1.94,1.3,2.04c1,0.15,1.1-0.05,1.1-1.84c0-1.84-0.1-2.04-1.3-2.04
			C146.54,143.5,146.44,143.65,146.59,145.35z"/>
	</g>
</g>
<g id="MasterLayer_1">
</g>
</svg>
